<?xml version="1.0" encoding="UTF-8" standalone="no" ?>
<!DOCTYPE svg PUBLIC "-//W3C//DTD SVG 1.1//EN" "http://www.w3.org/Graphics/SVG/1.1/DTD/svg11.dtd">
<svg xmlns="http://www.w3.org/2000/svg" xmlns:xlink="http://www.w3.org/1999/xlink" version="1.1" width="1280" height="1024" viewBox="0 0 1280 1024" xml:space="preserve">
<desc>Created with Fabric.js 5.3.0</desc>
<defs>
</defs>
<g transform="matrix(1 0 0 1 640 512)" id="background-logo"  >
<rect style="stroke: none; stroke-width: 0; stroke-dasharray: none; stroke-linecap: butt; stroke-dashoffset: 0; stroke-linejoin: miter; stroke-miterlimit: 4; fill: rgb(255,255,255); fill-opacity: 0; fill-rule: nonzero; opacity: 1;"  paint-order="stroke"  x="-640" y="-512" rx="0" ry="0" width="1280" height="1024" />
</g>
<g transform="matrix(1.9211538461538462 0 0 1.9211538461538462 622.0097380294434 474.90926473736397)" id="logo-logo"  >
<g style=""  paint-order="stroke"   >
		<g transform="matrix(0.44799267487507594 0 0 0.44799267487507594 0 2.842171e-14)"  >
<path style="stroke: none; stroke-width: 1; stroke-dasharray: none; stroke-linecap: butt; stroke-dashoffset: 0; stroke-linejoin: miter; stroke-miterlimit: 4; fill: rgb(57,95,74); fill-rule: nonzero; opacity: 1;"  paint-order="stroke"  transform=" translate(-507.59992366194524, -421.66073327179913)" d="M 599.8688324 251.8479532 C 599.8748949 246.7043502 604.0463103999999 242.5378484 609.1899169 242.5378484 L 609.9213355999999 242.5378484 C 615.0784643999999 242.5378484 619.2554731999999 246.725462 619.2423965999999 251.8825742 L 618.5712106999999 516.5837483 C 618.4319273 571.5216776 577.8291399 617.3072844000001 526.8851467999999 633.2049020000001 C 485.7934044999999 646.0280438000001 443.5075119999999 638.3573629000001 408.7089789999999 612.4376332 C 379.8621983999999 590.9512251000001 360.07604909999986 556.0369204000001 357.93625229999986 516.0747899 C 357.65091049999984 510.74584110000006 361.9148456999999 506.27151130000004 367.25142849999986 506.27151130000004 L 456.1144492999999 506.27151130000004 C 460.6892509999999 506.27151130000004 464.56340999999986 509.5974072 465.30897149999987 514.1110474000001 C 465.31948439999985 514.1746926000001 465.3300837999999 514.2383020000001 465.3407696999999 514.3018753000001 C 466.2922938999999 519.9627704000001 461.8856075999999 525.1049064000001 456.1452998999999 525.1049064000001 L 405.04620669999986 525.1049064000001 L 390.08058969999985 525.0093559000002 C 383.90929039999986 524.9699542000002 379.44246059999983 530.8214746000002 381.0239382999998 536.7868258000002 C 391.7035316999998 577.0703698000002 422.26315709999983 607.0730163000002 463.19328659999985 616.6196458000002 C 531.1452871999999 632.4691287000002 599.4806095999999 581.2074320000002 599.5646624999998 509.9162880000002 L 599.8688324999998 251.84795310000015 Z M 550.7221389 204.0283512 C 545.5743588 204.0217164 541.3958357 208.189354 541.3890424 213.3371339 L 540.9974647 510.06610550000005 C 540.9571574 540.6288583 511.99930900000004 563.5033735000001 484.0250763 561.2509915 C 470.15001010000003 560.1338424 458.65067250000004 554.1868908 450.24739200000005 545.1315366 C 448.5004804000001 543.249069 446.03561780000007 542.1990151 443.46746980000006 542.1990151 L 442.0238274000001 542.1990151 C 433.85672200000005 542.1990151 429.6946407000001 551.9048908999999 435.2311131000001 557.9089799 C 449.65031640000007 573.5460451 470.5258686000001 582.1316531 494.0375322000001 580.0987246999999 C 529.0370897000001 577.0723836 560.5373719000002 548.6388231 560.590042 511.50634249999996 L 560.9863449000001 232.33296129999997 C 560.9936432000001 227.19168729999996 565.1624319000001 223.02715239999998 570.3037107 223.02510289999998 L 599.9028488 223.01330349999998 L 599.9028488 223.0276415 L 647.9554477 223.0276415 C 653.0941136 223.0276415 657.2634749 218.8688422 657.2765087 213.7301928 L 657.2770966 213.4984136 C 657.2901654000001 208.3459919 653.1204832000001 204.1603288 647.9680492 204.15368809999998 L 550.7221389 204.0283514 Z" stroke-linecap="round" />
</g>
</g>
</g>
</svg>